<svg width="451" height="264" viewBox="0 0 451 264" fill="none" xmlns="http://www.w3.org/2000/svg">
<path d="M373.958 106.97C373.394 106.526 372.734 106.229 372.034 106.104C371.297 105.93 370.544 105.821 369.795 105.7L360.089 104.264C359.109 104.077 358.11 104.022 357.116 104.102C356.618 104.144 356.133 104.287 355.689 104.523C355.245 104.759 354.851 105.084 354.53 105.477C354.241 105.844 354.082 106.3 354.081 106.772C354.135 107.246 354.285 107.704 354.522 108.115C354.616 108.307 354.697 108.506 354.763 108.71C354.856 109.168 354.971 109.62 355.11 110.065C355.153 110.162 355.208 110.252 355.275 110.332C355.277 110.355 355.277 110.378 355.275 110.401C355.169 110.959 355.512 111.542 355.358 112.08C355.224 112.541 354.786 112.821 354.51 113.205C354.326 113.478 354.224 113.8 354.217 114.131C354.21 114.463 354.299 114.789 354.471 115.07C354.767 115.539 355.303 115.859 355.457 116.397C355.658 117.105 355.114 117.789 354.629 118.335C353.737 119.341 352.912 120.407 352.161 121.527C351.95 121.803 351.814 122.131 351.767 122.478C351.723 123.182 352.382 123.801 352.267 124.501C352.177 125.051 351.652 125.387 351.199 125.715C349.523 126.847 348.179 128.668 348.045 130.727C347.615 127.451 346.292 124.366 344.229 121.827C343.665 121.131 343.046 120.431 342.814 119.549C342.727 119.197 342.711 118.821 342.593 118.481C342.199 117.409 340.945 116.947 340.397 115.96C340.003 115.264 340.003 114.37 339.514 113.759C339.025 113.148 338.256 113.011 337.834 112.42C337.624 112.02 337.445 111.603 337.298 111.174C337.121 110.824 336.873 110.517 336.569 110.276C336.511 110.228 336.45 110.183 336.388 110.142C336.453 110.082 336.506 110.008 336.542 109.926C336.578 109.844 336.596 109.755 336.597 109.665C336.597 109.191 336.139 108.88 335.741 108.645C335.229 108.346 334.728 108.022 334.239 107.686C334.772 107.431 335.234 107.043 335.583 106.558C336.021 105.833 336.202 104.976 336.096 104.13C336.069 103.448 335.821 102.794 335.39 102.273C335.142 102.002 334.83 101.808 334.57 101.553C333.896 100.877 333.667 99.8778 333.388 98.9554C333.017 97.7416 332.437 96.4672 331.357 95.8239C330.837 95.5124 330.23 95.3667 329.721 95.039C329.213 94.7113 328.787 94.0923 328.964 93.4975C329.083 93.0929 329.449 92.8138 329.698 92.4699C329.994 92.0252 330.108 91.4785 330.014 90.9483C329.92 90.4181 329.627 89.9472 329.197 89.6378C328.905 89.4476 328.546 89.2817 328.487 88.9338C328.259 88.873 328.052 88.7473 327.89 88.5713C327.729 88.3952 327.618 88.1759 327.573 87.9385C327.484 87.4627 327.484 86.974 327.573 86.4982C327.675 85.7457 327.776 84.9958 327.876 84.2487C328.05 84.3228 328.236 84.361 328.424 84.361C328.612 84.361 328.798 84.3228 328.972 84.2487C329.313 84.8169 329.71 85.3483 330.155 85.8347C331.355 87.2896 332.29 88.9548 332.914 90.7504C333.139 91.3977 333.368 92.1219 333.951 92.4658C334.152 92.5832 334.381 92.6438 334.578 92.7693C334.821 92.9432 335.03 93.1628 335.193 93.4166C335.666 94.0599 336.139 94.6991 336.608 95.3424L336.632 95.4395C336.645 95.4965 336.666 95.5511 336.695 95.6014C336.782 95.7022 336.903 95.7657 337.034 95.7794C338.485 96.1233 340.113 96.4389 341.371 95.6256C342.506 94.8974 343.003 93.4571 343.965 92.4941C344.647 91.8104 345.613 91.2804 345.806 90.3175C345.576 90.2446 345.349 90.1595 345.128 90.0626C345.325 89.8603 345.522 89.6256 345.79 89.3586C346.18 88.9673 346.531 88.5377 346.839 88.0761C347.172 87.5066 347.436 86.898 347.627 86.2635C348.387 84.041 349.149 81.8171 349.914 79.5919C350.276 78.54 350.639 77.48 351.096 76.4564C351.569 75.3478 352.129 74.2838 352.646 73.1954C353.979 70.365 355.007 67.394 355.713 64.335C355.838 63.9177 355.88 63.4786 355.835 63.0444C355.725 62.3444 355.208 61.7942 354.715 61.2966C354.22 60.746 353.655 60.2657 353.036 59.8684C352.725 59.67 352.379 59.537 352.017 59.4773C351.656 59.4176 351.287 59.4322 350.931 59.5204C349.922 59.8239 349.287 60.8839 349.054 61.948C348.822 63.012 348.908 64.1084 348.81 65.1846C348.668 66.7423 348.148 68.2473 348.021 69.809C347.954 70.7113 348.021 71.6256 347.915 72.5279C347.721 73.7086 347.32 74.8436 346.732 75.8778C345.454 78.3444 343.723 80.5343 341.635 82.3269C341.394 82.5333 341.146 82.7315 340.909 82.954C340.909 82.78 340.937 82.602 340.961 82.4281C340.789 82.4739 340.622 82.5348 340.46 82.6101C340.48 82.4058 340.46 82.1995 340.401 82.0033C340.086 81.0363 338.682 80.7895 338.43 79.8063C338.388 79.5632 338.365 79.3169 338.363 79.07C338.28 78.2082 337.708 77.48 337.511 76.6425C337.33 75.8697 337.468 75.0241 337.117 74.308C336.818 73.8603 336.466 73.4525 336.068 73.0943C335.595 72.539 335.253 71.8783 335.071 71.1644C335.02 70.9662 334.972 70.7598 334.917 70.5616C334.977 70.1127 334.928 69.6555 334.775 69.2305C334.417 68.3161 333.49 67.7295 333.155 66.803C332.895 66.0828 333.009 65.1846 332.516 64.6263C332.254 64.3595 331.934 64.1611 331.582 64.0478C329.778 63.3266 327.884 62.8677 325.956 62.6843C324.876 62.5832 323.686 62.5265 322.913 61.7457C322.01 60.8394 321.967 59.2089 320.91 58.509C319.98 57.89 318.663 58.3471 317.942 59.217C317.833 59.345 317.733 59.4801 317.642 59.6216C317.51 59.0793 317.482 58.516 317.559 57.9628C317.559 57.8252 317.587 57.6836 317.599 57.5582C319.379 56.9612 320.894 55.7336 321.872 54.0949C321.872 54.0949 321.872 54.0949 321.872 54.1192L321.919 54.2446C322.034 54.54 322.215 54.8232 322.483 54.8556C322.661 54.8534 322.834 54.7892 322.972 54.6735C323.21 54.5039 323.429 54.3086 323.626 54.0909C323.726 53.9776 323.821 53.8603 323.91 53.7389C324.092 53.4863 324.248 53.2151 324.375 52.9297C324.571 52.5004 324.704 52.0436 324.77 51.5744C324.841 51.1051 324.849 50.6236 324.927 50.1543C325.001 49.791 325.097 49.4329 325.215 49.0821C325.255 48.9648 325.294 48.8475 325.329 48.7301C325.365 48.6128 325.416 48.455 325.456 48.3256C325.702 47.4934 325.835 46.6301 325.85 45.7605C325.85 45.6148 325.85 45.4692 325.85 45.3235C325.836 44.756 325.711 44.197 325.483 43.6795C325.256 43.1619 324.93 42.6961 324.525 42.3094C323.847 41.7389 322.948 41.5002 322.452 40.7274C322.128 40.2096 322.057 39.542 321.868 38.9351C321.664 38.2089 321.265 37.5559 320.717 37.0503C320.17 36.5448 319.495 36.2068 318.769 36.0747C317.896 35.9764 317.019 36.2239 316.317 36.7666V36.7666L316.262 36.8111C315.871 37.1174 315.54 37.4962 315.284 37.9277C314.764 37.7805 314.287 37.5024 313.897 37.1185C313.503 36.7423 313.199 36.2689 312.801 35.9048C312.429 35.5551 311.972 35.3143 311.478 35.2075C310.984 35.1008 310.472 35.132 309.994 35.2979C309.502 35.5003 309.063 35.8196 308.714 36.2296C308.365 36.6396 308.116 37.1287 307.987 37.6566C307.77 38.4901 307.81 39.449 307.356 40.1448C307.006 40.687 306.43 40.954 306.028 41.4476C305.778 41.7602 305.607 42.1313 305.531 42.5279V42.5279C305.483 42.7496 305.461 42.9764 305.464 43.2035V43.2035C305.464 43.3046 305.464 43.4058 305.488 43.5029C305.488 43.5029 305.488 43.5353 305.488 43.5515C305.502 43.6623 305.524 43.7719 305.555 43.8792V43.8792C305.667 44.2893 305.868 44.6682 306.142 44.9877C306.402 45.2937 306.727 45.5345 307.092 45.6917C307.242 45.7513 307.394 45.8013 307.55 45.8414L308.019 45.9506L308.184 45.9911C307.618 47.082 307.304 48.2918 307.266 49.5271C307.227 50.7624 307.466 51.9903 307.964 53.1158C307.964 53.2291 307.936 53.3424 307.924 53.4557C307.86 55.0488 307.929 56.6446 308.129 58.2258C308.184 58.8529 308.216 59.5447 307.841 60.0424C307.671 60.2381 307.479 60.4132 307.27 60.5643C307.483 60.2811 307.699 60.0019 307.92 59.7227C307.364 59.1482 306.485 59.0754 305.697 59.132C304.171 59.249 302.689 59.7134 301.36 60.4914C300.477 61.0134 299.57 61.7052 298.561 61.5838C297.966 61.515 297.379 61.1792 296.799 61.3411C296.473 61.4778 296.169 61.6633 295.896 61.8913C295.681 62.05 295.42 62.1324 295.155 62.126C294.536 61.3451 293.578 60.8151 292.837 60.1799C291.993 59.4093 291.221 58.5601 290.531 57.6432C289.253 56.0612 287.98 54.4753 286.726 52.8771C285.67 51.5339 284.586 50.0815 284.4 48.362C284.382 48.1914 284.372 48.0198 284.373 47.8481C284.398 47.0311 284.499 46.2184 284.672 45.4206C284.719 45.228 284.719 45.0266 284.672 44.834C284.554 44.4294 284.101 44.2797 283.711 44.1907C283.762 43.8792 283.797 43.5595 283.817 43.2561C284.038 39.7767 283.797 36.2406 284.515 32.834C284.787 31.5231 285.232 30.1961 286.151 29.2453C287.59 27.7524 289.998 27.3923 291.102 25.6243C292.025 24.1516 291.658 22.068 290.499 20.7692C289.34 19.4705 287.554 18.9405 285.855 19.0053C285.378 18.9885 284.908 19.1181 284.503 19.3775C284.125 19.7222 283.842 20.1632 283.683 20.656L281.992 24.8758C281.501 25.9744 281.088 27.1074 280.754 28.2662C280.281 30.0383 280.174 31.9075 279.8 33.6957C279.8 35.0713 278.936 36.7868 278.463 38.0531C277.935 39.4773 277.363 40.8852 276.886 42.3377C276.768 42.7018 276.354 43.7821 276.098 44.7652C276.001 44.8231 275.911 44.8923 275.83 44.9716C275.624 45.2423 275.437 45.5275 275.27 45.8252C274.911 46.3107 274.328 46.5697 273.934 47.039C273.539 47.5083 273.457 48.3701 274.005 48.6047C274.116 48.6431 274.231 48.6689 274.348 48.6816C274.419 48.6878 274.491 48.7 274.56 48.718C275.152 48.8879 275.384 49.6526 275.298 50.2837C275.211 50.9149 274.903 51.4975 274.852 52.1287C274.746 53.2453 275.384 54.2851 275.999 55.2237C276.636 56.2412 277.339 57.2131 278.105 58.1327C278.66 58.772 279.287 59.3465 279.847 59.9614C281.98 62.2109 283.675 64.8407 285.591 67.2844C286.28 68.2067 287.064 69.0504 287.929 69.801C288.493 70.2543 289.085 70.6718 289.699 71.0511L292.995 73.1954C293.368 73.4765 293.791 73.6812 294.24 73.7983C294.387 73.8185 294.535 73.8185 294.682 73.7983C294.702 73.8994 294.717 73.9965 294.741 74.0976C294.997 75.1577 295.561 76.1206 295.624 77.2008C295.687 78.2811 295.593 79.3856 295.668 80.478C295.739 81.4854 295.955 82.5009 296.011 83.4921C296.121 85.4018 295.664 87.2871 295.222 89.1563C294.556 91.8913 294.154 94.683 292.857 97.1631C292.494 97.8468 292.068 98.5427 292.068 99.3236C292.068 99.4166 292.068 99.5137 292.092 99.6068L291.501 99.9507C291.327 100.052 291.154 100.153 290.996 100.258C290.247 100.76 289.447 101.314 289.139 102.18C288.891 102.88 289.005 103.681 288.705 104.361C288.691 104.391 288.675 104.421 288.658 104.45C288.343 105.081 287.716 105.55 287.574 106.242C287.468 106.772 287.673 107.334 287.574 107.86C287.574 107.86 287.574 107.86 287.574 107.881C287.484 108.145 287.413 108.415 287.361 108.69C287.357 108.779 287.365 108.869 287.385 108.957C287.46 109.263 287.625 109.539 287.858 109.746C288 109.886 288.154 110.012 288.319 110.122C288.487 110.235 288.661 110.34 288.839 110.438L288.942 110.494C289.092 110.575 289.242 110.652 289.395 110.725L289.498 110.769C289.675 110.85 289.857 110.923 290.038 110.988L290.164 111.028C290.306 111.077 290.452 111.121 290.598 111.158L290.696 111.19L290.787 111.21L291.181 111.295L291.327 111.324C291.501 111.353 291.678 111.377 291.859 111.396H292.017C292.151 111.396 292.281 111.417 292.411 111.421H292.596C292.734 111.421 292.869 111.421 292.991 111.421H293.133C293.318 111.421 293.503 111.392 293.688 111.368H293.748C293.913 111.344 294.079 111.315 294.244 111.279L294.371 111.251C294.524 111.214 294.678 111.178 294.832 111.129L294.915 111.105C295.1 111.048 295.285 110.988 295.466 110.915C296.094 110.65 296.703 110.341 297.288 109.988C297.682 109.766 298.076 109.539 298.471 109.333C298.763 109.182 299.063 109.047 299.369 108.928C300.115 108.602 300.926 108.463 301.735 108.524C302.134 108.58 302.529 108.662 302.917 108.771C302.917 108.815 302.917 108.86 302.917 108.904C303.238 110.846 303.555 112.788 303.868 114.73C304.384 114.349 304.93 114.012 305.5 113.723C305.393 114.016 305.323 114.322 305.291 114.633C305.267 114.874 305.267 115.116 305.291 115.357C305.326 115.742 305.405 116.166 305.18 116.47C305.042 116.656 304.786 116.761 304.711 116.972C304.656 117.187 304.643 117.411 304.672 117.631C304.656 117.883 304.552 118.12 304.38 118.299C304.208 118.479 303.978 118.589 303.734 118.61C303.846 118.936 303.849 119.291 303.741 119.618C303.633 119.946 303.421 120.226 303.138 120.415C302.973 120.496 302.82 120.599 302.681 120.722C302.546 120.901 302.455 121.11 302.417 121.333C301.896 123.337 300.824 125.144 299.33 126.54C298.769 126.992 298.258 127.505 297.804 128.069C297.524 128.507 297.292 128.975 297.114 129.465C296.063 132.103 294.996 134.742 293.913 137.383C293.314 138.86 292.731 140.361 292.541 141.951C292.068 146.312 288.284 150.01 288.993 154.339C289.137 155.42 289.562 156.442 290.223 157.297C291.012 158.272 292.194 158.83 293.377 159.283C296.417 160.497 299.622 161.16 302.815 161.828L307.83 162.884C308.814 163.116 309.812 163.278 310.818 163.369C312.028 163.454 313.27 163.337 314.449 163.653C315.178 163.847 315.876 164.207 316.629 164.247C317.275 164.284 318.072 164.142 318.454 164.684C318.836 165.226 318.541 165.943 318.904 166.424C319.487 167.189 320.91 166.424 321.545 167.144C321.718 167.421 321.851 167.722 321.939 168.038C322.036 168.234 322.17 168.407 322.333 168.548C322.372 168.776 322.388 169.008 322.381 169.24C322.298 170.18 322.108 171.106 321.813 171.999C321.34 173.642 320.868 175.286 320.398 176.931C320.218 177.512 320.086 178.108 320.003 178.711C319.974 179.005 319.974 179.3 320.003 179.593C320.086 180.487 320.587 181.41 321.419 181.701C322.064 181.876 322.75 181.789 323.335 181.458C323.899 181.156 324.428 180.79 324.912 180.366C325.784 179.688 326.552 178.878 327.186 177.963C329.157 174.937 328.519 170.842 329.903 167.496C330.821 165.263 332.611 163.45 333.206 161.096C333.345 160.648 333.362 160.169 333.254 159.712C333.005 158.903 332.165 158.442 331.381 158.15H331.345C330.701 157.915 330.043 157.722 329.374 157.572C329.209 157.535 329.039 157.507 328.87 157.479C328.495 157.165 328.196 156.766 327.998 156.313C327.967 156.073 327.905 155.837 327.813 155.614C327.75 155.517 327.666 155.437 327.567 155.381C327.469 155.325 327.358 155.294 327.245 155.29C326.851 155.249 326.323 155.395 325.893 155.363C325.014 155.298 324.431 154.412 323.642 154.003C322.854 153.595 321.998 153.696 321.159 153.756C320.858 153.799 320.553 153.779 320.26 153.7C319.909 153.534 319.589 153.309 319.314 153.032C318.828 152.645 318.262 152.378 317.659 152.254C317.056 152.13 316.434 152.151 315.84 152.316C315.463 152.473 315.064 152.565 314.658 152.591C313.889 152.547 313.345 151.843 312.777 151.309C311.224 149.848 309.012 149.464 307.128 148.505C306.839 148.395 306.599 148.182 306.45 147.906C306.233 147.356 306.722 146.806 307.163 146.429L310.404 143.666C313.952 140.64 318.387 138.362 320.035 133.924C320.207 133.329 320.473 132.767 320.823 132.261C320.951 132.106 321.098 131.97 321.261 131.856C321.978 131.38 322.847 131.206 323.686 131.371C324.708 131.606 325.677 132.04 326.54 132.649C327.951 133.526 329.324 134.47 330.659 135.481C331.982 136.451 333.24 137.511 334.424 138.653C336.494 140.676 338.217 143.075 340.145 145.256C342.072 147.437 344.276 149.472 346.953 150.516C349.63 151.56 352.866 151.515 355.165 149.763C357.818 147.74 358.67 144.123 359.34 140.806C360.818 139.341 361.264 137.112 361.985 135.141C362.438 133.891 363.018 132.714 363.507 131.468C364.09 130.003 364.548 128.49 365.005 126.981C365.523 125.466 365.875 123.895 366.054 122.3C366.243 119.779 365.584 117.097 366.274 114.73C367.185 114.524 368.013 113.998 368.908 113.69C370.24 113.241 371.667 113.314 373.079 113.322H373.169C373.656 113.375 374.145 113.257 374.557 112.986C375.03 112.582 375.105 111.89 375.129 111.263C375.184 109.713 375.089 107.974 373.958 106.97ZM316.838 37.956C316.512 38.0388 316.174 38.0634 315.84 38.0289L316.838 37.956Z" fill="url(#paint0_linear)"/>
<path d="M318.391 63.5501C317.913 63.9662 317.354 64.2712 316.751 64.4442L313.956 65.4719C312.438 66.0302 310.853 66.5926 309.252 66.3903C308.358 66.277 304.522 65.6985 303.942 64.9823C303.059 63.8738 306.154 62.2433 307.21 61.3087C307.45 61.132 307.672 60.9314 307.873 60.7099C308.267 60.2163 308.216 59.5245 308.16 58.9014C307.96 57.323 307.891 55.7299 307.955 54.1394C307.986 53.7603 308.039 53.3834 308.113 53.0106C308.507 51.1496 310.195 51.8293 311.527 52.3228C313.131 52.8576 314.682 53.5471 316.159 54.3822C316.609 54.6203 317 54.9607 317.303 55.3775C317.886 56.2838 317.654 57.4732 317.559 58.6142C317.476 59.5002 317.48 60.3498 318.02 60.9931C318.292 61.2391 318.541 61.5099 318.765 61.8023C318.891 62.0967 318.923 62.4247 318.856 62.7389C318.789 63.0531 318.626 63.3371 318.391 63.5501Z" fill="#BE6F72"/>
<path d="M279.78 34.3916C280.174 32.5993 280.261 30.7504 280.734 28.9742C281.068 27.8194 281.481 26.6904 281.972 25.5959L283.71 21.4328C283.869 20.9412 284.152 20.5015 284.53 20.1583C284.936 19.9007 285.406 19.7713 285.882 19.7861C287.582 19.7214 289.367 20.2635 290.527 21.5461C291.686 22.8286 292.052 24.9041 291.13 26.3728C290.026 28.1408 287.617 28.4968 286.178 29.9857C285.26 30.9365 284.814 32.2595 284.542 33.5663C283.825 36.9648 284.065 40.4887 283.844 43.9601C283.773 45.0403 283.568 46.2743 282.662 46.8326C282.114 47.1082 281.504 47.2297 280.895 47.1846L278.309 47.2291C277.876 47.2291 276.303 47.5083 276.015 47.1725C275.51 46.5858 276.661 43.6647 276.87 43.0133C277.336 41.569 277.907 40.161 278.447 38.7409C278.916 37.4746 279.78 35.7632 279.78 34.3916Z" fill="#BE6F72"/>
<path d="M333.179 161.496C332.583 163.835 330.793 165.655 329.875 167.885C328.491 171.222 329.114 175.305 327.159 178.323C326.524 179.24 325.757 180.051 324.884 180.73C324.4 181.153 323.871 181.518 323.307 181.818C322.723 182.149 322.036 182.236 321.391 182.061C320.559 181.77 320.059 180.847 319.976 179.957C319.946 179.666 319.946 179.371 319.976 179.079C320.059 178.477 320.19 177.883 320.37 177.303C320.843 175.666 321.315 174.026 321.785 172.384C322.08 171.493 322.27 170.569 322.353 169.632C322.404 168.613 321.774 167.286 322.042 166.335C322.164 165.906 322.621 165.526 322.83 165.166C323.127 164.648 323.355 164.091 323.508 163.511C323.831 162.382 324.052 161.177 324.73 160.226C325.173 159.662 325.69 159.165 326.268 158.749C326.694 158.366 327.193 158.078 327.734 157.903C328.259 157.809 328.798 157.835 329.311 157.98C329.98 158.127 330.638 158.319 331.282 158.555H331.318C332.106 158.846 332.942 159.295 333.19 160.112C333.311 160.566 333.307 161.045 333.179 161.496V161.496Z" fill="#3F3D56"/>
<path d="M375.125 111.756C375.101 112.384 375.026 113.083 374.553 113.476C374.141 113.746 373.652 113.865 373.165 113.812H373.059C371.652 113.812 370.22 113.731 368.888 114.18C367.875 114.524 366.944 115.155 365.888 115.28C364.433 115.45 363.065 114.633 361.776 113.921C360.562 113.25 359.316 112.642 358.043 112.1C357.207 111.748 355.5 111.522 355.098 110.583C354.96 110.139 354.844 109.688 354.751 109.232C354.685 109.028 354.604 108.829 354.51 108.637C354.274 108.227 354.124 107.771 354.069 107.298C354.07 106.826 354.229 106.37 354.518 106.003C354.84 105.613 355.234 105.291 355.677 105.057C356.12 104.823 356.604 104.681 357.1 104.64C358.094 104.561 359.093 104.615 360.073 104.802L369.779 106.234C370.528 106.343 371.281 106.452 372.018 106.638C372.718 106.763 373.378 107.06 373.942 107.504C375.089 108.491 375.184 110.227 375.125 111.756Z" fill="#3F3D56"/>
<path d="M366.593 114.346C365.411 116.907 366.262 119.937 366.049 122.769C365.871 124.361 365.519 125.927 365.001 127.438C364.543 128.943 364.086 130.452 363.503 131.913C363.014 133.127 362.434 134.34 361.981 135.578C361.259 137.553 360.798 139.774 359.336 141.243C358.665 144.552 357.814 148.169 355.161 150.176C352.854 151.924 349.642 151.984 346.949 150.928C344.256 149.872 342.068 147.849 340.141 145.669C338.213 143.488 336.49 141.113 334.42 139.082C333.234 137.94 331.974 136.881 330.647 135.914C329.312 134.919 327.939 133.983 326.528 133.106C325.664 132.5 324.695 132.067 323.674 131.832C322.835 131.667 321.966 131.841 321.249 132.317C321.086 132.432 320.939 132.568 320.811 132.722C320.46 133.226 320.194 133.787 320.023 134.381C318.367 138.807 313.924 141.081 310.376 144.099L307.136 146.854C306.694 147.23 306.205 147.781 306.422 148.327C306.571 148.603 306.812 148.816 307.1 148.926C308.984 149.881 311.196 150.265 312.749 151.721C313.317 152.255 313.861 152.959 314.63 153C315.036 152.975 315.435 152.884 315.813 152.729C316.406 152.564 317.028 152.543 317.631 152.666C318.233 152.79 318.8 153.055 319.286 153.441C319.562 153.717 319.882 153.943 320.232 154.108C320.525 154.188 320.83 154.207 321.131 154.165C321.97 154.104 322.861 154.028 323.614 154.412C324.367 154.796 324.986 155.702 325.865 155.767C326.295 155.8 326.808 155.654 327.218 155.694C327.331 155.698 327.441 155.729 327.54 155.786C327.638 155.842 327.723 155.922 327.785 156.018C327.877 156.24 327.94 156.474 327.971 156.714C328.132 157.284 328.676 157.632 329.031 158.102C329.575 158.822 329.654 159.801 329.599 160.711C329.42 163.558 328.184 166.225 326.145 168.164C325.567 168.771 324.828 169.193 324.02 169.377C323.616 169.464 323.195 169.418 322.817 169.246C322.439 169.074 322.124 168.785 321.915 168.419C321.827 168.104 321.694 167.804 321.521 167.529C320.886 166.812 319.463 167.573 318.88 166.808C318.517 166.331 318.777 165.566 318.43 165.073C318.083 164.579 317.248 164.668 316.605 164.64C315.852 164.599 315.154 164.235 314.425 164.045C313.242 163.729 312.004 163.847 310.794 163.762C309.788 163.671 308.79 163.509 307.806 163.276L302.791 162.224C299.598 161.557 296.393 160.881 293.353 159.688C292.19 159.235 291.019 158.676 290.199 157.705C289.538 156.852 289.113 155.832 288.969 154.752C288.256 150.435 292.04 146.745 292.517 142.396C292.687 140.81 293.306 139.313 293.889 137.84C294.959 135.208 296.026 132.574 297.091 129.938C297.263 129.448 297.487 128.978 297.761 128.539C298.214 127.975 298.726 127.464 299.286 127.013C300.78 125.622 301.852 123.818 302.373 121.818C302.412 121.596 302.503 121.386 302.637 121.208C302.777 121.087 302.931 120.986 303.095 120.904C303.376 120.716 303.588 120.436 303.696 120.11C303.804 119.783 303.802 119.429 303.69 119.104C303.935 119.083 304.164 118.973 304.336 118.793C304.508 118.613 304.612 118.376 304.628 118.125C304.6 117.906 304.613 117.683 304.668 117.469C304.762 117.259 304.999 117.154 305.137 116.967C305.362 116.664 305.283 116.239 305.247 115.859C305.224 115.618 305.224 115.376 305.247 115.135C305.333 114.278 305.707 113.479 306.304 112.873C307.246 111.922 308.586 112.169 309.887 111.943C311.185 111.655 312.452 111.239 313.672 110.7C317.093 109.317 320.694 108.462 324.359 108.164C328.043 107.866 331.742 108.471 335.154 109.928C335.65 110.134 336.118 110.406 336.545 110.737C336.849 110.977 337.098 111.282 337.274 111.631C337.42 112.059 337.599 112.475 337.811 112.873C338.232 113.464 339.029 113.654 339.49 114.212C339.951 114.771 339.991 115.713 340.373 116.405C340.921 117.392 342.191 117.849 342.569 118.922C342.687 119.261 342.703 119.634 342.79 119.986C343.003 120.868 343.641 121.564 344.205 122.259C346.272 124.796 347.595 127.883 348.021 131.16C348.147 129.109 349.492 127.293 351.175 126.16C351.628 125.856 352.153 125.52 352.243 124.97C352.358 124.274 351.699 123.655 351.743 122.947C351.791 122.602 351.927 122.275 352.137 122.001C352.888 120.883 353.713 119.819 354.605 118.816C355.09 118.27 355.634 117.603 355.433 116.883C355.279 116.344 354.743 116.029 354.447 115.56C354.275 115.28 354.186 114.954 354.193 114.623C354.2 114.292 354.302 113.97 354.487 113.698C354.763 113.314 355.2 113.035 355.334 112.578C355.488 112.04 355.145 111.457 355.251 110.903C355.395 110.459 355.682 110.078 356.064 109.823C356.587 109.334 357.181 108.932 357.826 108.633C358.866 108.228 360.026 108.378 361.129 108.536C362.974 108.799 365.044 109.203 366.085 110.789C366.751 111.781 367.09 113.286 366.593 114.346Z" fill="#65617D"/>
<path opacity="0.1" d="M375.125 111.756C375.101 112.384 375.026 113.083 374.553 113.476C374.141 113.746 373.652 113.865 373.165 113.812H373.059C373.22 112.97 374.218 112.489 374.391 111.635C374.421 111.373 374.398 111.107 374.323 110.855C374.249 110.602 374.124 110.368 373.958 110.166C373.114 108.997 371.758 108.35 370.41 107.876C366.601 106.536 362.52 106.223 358.559 106.966C357.482 107.146 356.434 107.477 355.445 107.949C355.117 108.16 354.801 108.39 354.498 108.637C354.262 108.227 354.112 107.771 354.057 107.298C354.058 106.826 354.217 106.37 354.506 106.003C354.828 105.613 355.222 105.291 355.665 105.057C356.108 104.823 356.592 104.681 357.089 104.64C358.082 104.561 359.081 104.615 360.061 104.802L369.767 106.234C370.516 106.343 371.269 106.452 372.006 106.638C372.706 106.763 373.366 107.06 373.93 107.504C375.089 108.491 375.184 110.227 375.125 111.756Z" fill="black"/>
<path opacity="0.1" d="M333.179 161.496C332.583 163.835 330.793 165.655 329.875 167.885C328.491 171.222 329.114 175.305 327.159 178.323C326.524 179.24 325.757 180.051 324.884 180.73C324.4 181.153 323.871 181.518 323.307 181.818C322.723 182.149 322.036 182.236 321.391 182.061C320.559 181.77 320.059 180.847 319.976 179.957C319.946 179.666 319.946 179.371 319.976 179.079L319.999 179.144C320.342 179.994 320.902 180.884 321.785 181.034C322.117 181.058 322.45 181.012 322.763 180.899C323.076 180.785 323.364 180.607 323.607 180.374C324.908 179.302 325.665 177.704 326.386 176.162C326.951 175.051 327.397 173.88 327.718 172.671C327.876 171.983 327.951 171.279 328.113 170.591C328.862 167.249 331.412 164.522 331.976 161.136C332.022 160.903 332.033 160.664 332.008 160.428C331.933 160.12 331.819 159.823 331.669 159.546C331.532 159.233 331.431 158.904 331.369 158.567C332.158 158.858 332.993 159.307 333.242 160.125C333.343 160.579 333.322 161.054 333.179 161.496Z" fill="black"/>
<path opacity="0.1" d="M327.226 155.694C326.861 156.673 326.247 157.534 325.448 158.187C324.325 159.064 323.011 159.647 321.62 159.886C320.972 160.055 320.292 160.047 319.648 159.862C318.773 159.55 318.142 158.709 317.248 158.466C316.609 158.288 315.923 158.446 315.276 158.348C314.113 158.183 313.211 157.272 312.272 156.544C309.398 154.327 305.626 153.611 302.752 151.394C302.624 151.313 302.518 151.2 302.444 151.066C302.389 150.921 302.369 150.764 302.385 150.609C302.396 149.264 302.69 147.937 303.248 146.721C303.706 145.872 304.25 145.076 304.873 144.346C307.447 141.109 310.033 137.848 313.116 135.117C314.409 133.972 315.82 132.904 317.453 132.386C318.359 132.099 320.149 131.828 321.253 132.313C321.09 132.428 320.943 132.564 320.815 132.718C320.464 133.222 320.198 133.783 320.027 134.377C318.367 138.807 313.924 141.081 310.376 144.099L307.136 146.854C306.694 147.23 306.205 147.781 306.422 148.327C306.571 148.603 306.812 148.816 307.1 148.926C308.984 149.881 311.196 150.265 312.749 151.721C313.317 152.255 313.861 152.959 314.63 153C315.036 152.975 315.435 152.884 315.813 152.729C316.406 152.564 317.028 152.543 317.631 152.666C318.233 152.79 318.8 153.055 319.286 153.441C319.562 153.717 319.882 153.943 320.232 154.108C320.525 154.188 320.83 154.207 321.131 154.165C321.97 154.104 322.861 154.028 323.614 154.412C324.367 154.796 324.986 155.702 325.865 155.767C326.303 155.8 326.816 155.646 327.226 155.694Z" fill="black"/>
<path d="M290.968 100.784C290.219 101.278 289.423 101.836 289.115 102.694C288.863 103.394 288.981 104.195 288.678 104.874C288.374 105.554 287.692 106.028 287.542 106.756C287.436 107.286 287.645 107.844 287.542 108.374C287.453 108.65 287.381 108.931 287.326 109.216C287.286 109.818 287.791 110.308 288.284 110.644C289.333 111.344 290.527 111.782 291.771 111.923C293.015 112.063 294.274 111.902 295.447 111.453C296.499 111.048 297.449 110.389 298.459 109.871C299.443 109.289 300.569 109.009 301.703 109.062C302.354 109.135 302.977 109.377 303.627 109.466C303.948 109.532 304.28 109.516 304.594 109.42C304.908 109.324 305.194 109.151 305.429 108.916C305.63 108.632 305.764 108.304 305.823 107.957C306.371 105.736 306.122 103.382 305.602 101.148C305.082 98.9149 304.293 96.7665 303.737 94.5454C303.343 92.8987 303.04 91.2116 302.381 89.6539C301.723 88.0963 300.615 86.6479 299.066 86.0531C298.944 85.9916 298.805 85.9731 298.672 86.0005C298.572 86.0432 298.484 86.1098 298.415 86.1947C297.19 87.5276 296.266 89.1219 295.711 90.8637C295.092 92.8016 294.922 94.8569 294.355 96.803C294.11 97.6121 293.795 98.6964 293.172 99.3154C292.549 99.9344 291.674 100.319 290.968 100.784Z" fill="#3F3D56"/>
<path opacity="0.1" d="M305.834 107.945C305.768 108.293 305.627 108.62 305.421 108.904C305.187 109.14 304.9 109.313 304.586 109.408C304.272 109.503 303.94 109.518 303.619 109.45C302.972 109.369 302.349 109.123 301.699 109.046C300.564 108.992 299.438 109.273 298.454 109.855C297.445 110.373 296.483 111.016 295.439 111.433C293.91 112.027 292.241 112.125 290.657 111.712C289.815 111.495 289.016 111.134 288.291 110.644C287.794 110.312 287.294 109.835 287.333 109.216C287.388 108.932 287.461 108.652 287.55 108.378C287.653 107.848 287.448 107.29 287.55 106.76C287.7 106.032 288.386 105.546 288.685 104.874C288.985 104.203 288.871 103.398 289.119 102.698C289.427 101.836 290.227 101.282 290.976 100.784C291.725 100.286 292.616 99.9061 293.215 99.3033C293.293 99.2094 293.362 99.1093 293.424 99.0039C293.856 98.32 294.173 97.5664 294.362 96.7746C294.942 94.8245 295.1 92.7733 295.715 90.8313C296.272 89.091 297.197 87.4982 298.423 86.1664C298.489 86.0796 298.576 86.0125 298.675 85.9722C298.808 85.9444 298.947 85.9615 299.069 86.0208C300.615 86.6196 301.723 88.068 302.385 89.6256C303.047 91.1833 303.327 92.8623 303.741 94.513C304.293 96.7342 305.085 98.8906 305.606 101.12C306.126 103.349 306.382 105.72 305.834 107.945Z" fill="black"/>
<path opacity="0.1" d="M317.559 58.602C315.705 59.2065 313.699 59.0865 311.927 58.2649C310.154 57.4434 308.74 55.9784 307.956 54.1516C307.986 53.7725 308.039 53.3955 308.113 53.0228C308.507 51.1617 310.195 51.8414 311.527 52.335C313.131 52.8697 314.682 53.5593 316.16 54.3943C316.609 54.6324 317.001 54.9728 317.303 55.3896C317.886 56.2838 317.654 57.4732 317.559 58.602Z" fill="black"/>
<path d="M315.178 58.5778C319.532 58.5778 323.062 54.955 323.062 50.4861C323.062 46.0171 319.532 42.3943 315.178 42.3943C310.823 42.3943 307.293 46.0171 307.293 50.4861C307.293 54.955 310.823 58.5778 315.178 58.5778Z" fill="#BE6F72"/>
<path opacity="0.1" d="M336.573 110.955C336.573 111.627 335.686 111.841 335.027 111.805C332.662 111.663 330.348 110.996 328.006 111.198C325.045 111.473 322.325 113.152 319.357 113.306C318.213 113.367 317.05 113.193 315.923 113.407C314.464 113.686 313.163 114.597 311.677 114.726C310.388 114.839 309.114 114.342 307.825 114.394C306.924 114.449 306.045 114.706 305.251 115.147C305.337 114.29 305.711 113.491 306.308 112.885C307.25 111.934 308.59 112.181 309.891 111.955C311.189 111.667 312.456 111.251 313.676 110.713C317.096 109.329 320.698 108.474 324.363 108.176C328.044 107.875 331.742 108.476 335.153 109.928C335.65 110.134 336.118 110.406 336.545 110.737C336.567 110.807 336.576 110.881 336.573 110.955V110.955Z" fill="black"/>
<path d="M311.531 65.2615L308.338 64.0478L306.99 63.538C306.44 63.3017 305.862 63.1438 305.271 63.0687C303.726 62.9473 302.271 64.0033 301.447 65.3505C300.623 66.6978 300.312 68.304 300.047 69.8697C299.685 72.0113 299.377 74.161 299.125 76.3188C298.853 78.2674 298.715 80.2331 298.711 82.2015C298.802 87.2102 299.835 92.1502 300.97 97.0255C301.526 99.187 301.946 101.383 302.227 103.6C302.322 104.514 302.365 105.433 302.46 106.351C302.563 107.383 302.728 108.402 302.894 109.426L303.844 115.24C305.027 114.378 306.371 113.622 307.826 113.577C309.115 113.528 310.392 114.022 311.677 113.909C313.156 113.783 314.464 112.873 315.923 112.594C317.051 112.379 318.214 112.549 319.361 112.493C322.325 112.339 325.049 110.656 328.006 110.385C330.352 110.166 332.682 110.846 335.031 110.988C335.686 111.028 336.573 110.814 336.573 110.138C336.573 109.669 336.116 109.357 335.717 109.123C333.84 107.963 332.054 106.655 330.376 105.21C328.822 103.948 327.245 102.653 326.177 100.946C323.603 96.8394 324.486 91.2844 322.29 86.9513C320.504 83.4314 322.29 78.8191 322.29 74.8502C322.29 72.8717 322.29 70.8691 321.837 68.9473C321.553 67.8724 321.2 66.8182 320.78 65.7915L319.246 61.8064C319.215 61.6899 319.152 61.5848 319.065 61.5029C318.962 61.43 318.839 61.3918 318.714 61.3937C317.793 61.337 316.885 61.6357 316.167 62.2312C315.446 62.834 314.985 63.6998 314.275 64.3269C313.499 65.0188 312.497 65.6256 311.531 65.2615Z" fill="#E3E8F4"/>
<path d="M316.684 62.9635C316.936 61.8549 317.208 60.7018 317.93 59.836C318.651 58.9702 319.968 58.513 320.898 59.132C321.955 59.836 321.998 61.4624 322.901 62.3687C323.689 63.1455 324.872 63.2062 325.944 63.3073C327.872 63.4874 329.766 63.9451 331.57 64.6668C331.922 64.7787 332.242 64.9757 332.504 65.2413C332.997 65.8158 332.899 66.6978 333.143 67.4139C333.478 68.3364 334.405 68.923 334.763 69.8414C335.158 70.861 334.763 72.0019 334.432 73.0498C333.837 74.9311 333.462 76.8852 332.883 78.7746C332.303 80.6641 331.479 82.5252 330.123 83.9493C329.524 84.5805 328.633 85.163 327.845 84.7868L327.541 87.0322C327.452 87.5067 327.452 87.9941 327.541 88.4685C327.587 88.7059 327.697 88.9252 327.859 89.1013C328.021 89.2773 328.227 89.403 328.456 89.4638C328.515 89.8117 328.873 89.9776 329.165 90.1678C329.381 90.3189 329.565 90.5124 329.706 90.7371C329.848 90.9617 329.945 91.213 329.992 91.4765C330.039 91.7399 330.034 92.0102 329.978 92.2717C329.922 92.5332 329.816 92.7807 329.666 92.9999C329.418 93.3438 329.051 93.6148 328.933 94.0235C328.755 94.6142 329.177 95.2372 329.69 95.5609C330.202 95.8846 330.805 96.0343 331.326 96.3458C332.406 96.985 332.985 98.2433 333.356 99.4651C333.632 100.388 333.86 101.387 334.539 102.059C334.799 102.313 335.11 102.508 335.359 102.775C335.788 103.296 336.037 103.949 336.064 104.632C336.172 105.477 335.991 106.335 335.552 107.059C334.763 108.216 333.293 108.56 332.004 109.082C329.91 109.964 328.188 111.542 326.343 112.885C325.591 113.506 324.706 113.934 323.76 114.131C322.483 114.305 321.225 113.727 319.94 113.674C319.171 113.682 318.406 113.785 317.662 113.982L315.296 114.508C315.422 112.626 314.413 110.741 313.849 108.949C312.785 105.574 312.588 101.965 312.84 98.4294C313.092 94.8933 313.794 91.4058 314.488 87.9345C314.973 85.507 314.926 82.9702 315.671 80.6115C316.368 78.3417 317.366 76.161 317.733 73.7983C318.332 69.9749 315.84 66.7342 316.684 62.9635Z" fill="#3F3D56"/>
<path d="M334.617 70.4442C334.835 70.8554 334.988 71.2991 335.071 71.7591C335.253 72.4718 335.594 73.1312 336.068 73.685C336.465 74.044 336.817 74.4516 337.117 74.8987C337.479 75.6027 337.341 76.4604 337.511 77.2291C337.708 78.0666 338.28 78.7949 338.362 79.6566C338.365 79.9036 338.387 80.1499 338.43 80.393C338.686 81.3721 340.089 81.6068 340.401 82.5859C340.61 83.2211 340.251 83.9129 340.318 84.5805C340.367 84.7869 340.379 85.0008 340.353 85.2116C340.264 85.45 340.108 85.6557 339.904 85.8023C338.599 87.0815 337.696 88.7311 337.31 90.54C336.93 92.3391 336.731 94.1733 336.715 96.014L335.173 93.9223C335.01 93.6686 334.801 93.4489 334.558 93.275C334.361 93.1536 334.132 93.0929 333.931 92.9716C333.348 92.6317 333.119 91.9115 332.895 91.2642C332.27 89.4723 331.335 87.811 330.135 86.3606C329.508 85.6041 328.779 84.8434 328.641 83.8603C328.599 83.4087 328.623 82.9534 328.712 82.509C329.106 79.8589 329.528 77.1442 330.785 74.7935C331.373 73.6931 332.134 72.6978 332.697 71.5811C333.076 70.8407 333.608 68.9149 334.617 70.4442Z" fill="#3F3D56"/>
<path d="M295.726 72.9891C295.734 73.3297 295.649 73.6657 295.482 73.9601C295.331 74.1393 295.135 74.272 294.915 74.3434C294.695 74.4149 294.46 74.4222 294.236 74.3646C293.787 74.249 293.364 74.0457 292.99 73.7659C291.892 73.0538 290.793 72.3404 289.695 71.6256C289.081 71.2462 288.49 70.8301 287.925 70.3795C287.06 69.6303 286.276 68.788 285.587 67.867C283.671 65.4395 281.976 62.8056 279.843 60.5845C279.263 59.9776 278.66 59.395 278.1 58.7598C277.335 57.8416 276.632 56.8711 275.995 55.8549C275.38 54.9203 274.742 53.8845 274.848 52.7679C274.911 52.1367 275.207 51.5541 275.293 50.927C275.38 50.2999 275.148 49.5353 274.556 49.3653C274.486 49.3473 274.415 49.3351 274.343 49.3289C274.227 49.3162 274.112 49.2904 274 49.252C273.452 49.0174 273.535 48.1475 273.929 47.6903C274.324 47.2332 274.907 46.9783 275.266 46.4766C275.433 46.1789 275.62 45.8936 275.826 45.6229C276.09 45.3906 276.405 45.2281 276.744 45.1496C279.018 44.4618 281.424 44.3686 283.742 44.8785C284.136 44.9675 284.585 45.1293 284.704 45.5218C284.751 45.7129 284.751 45.9132 284.704 46.1044C284.53 46.9021 284.43 47.7149 284.404 48.5319C284.404 48.7022 284.413 48.8724 284.432 49.0417C284.617 50.7571 285.701 52.2096 286.758 53.5487C288.011 55.1428 289.285 56.7247 290.562 58.3026C291.253 59.217 292.025 60.0635 292.868 60.8313C293.657 61.5029 294.678 62.045 295.293 62.9068C295.793 63.6027 295.632 64.5535 295.687 65.3909C295.87 67.9197 295.884 70.4584 295.726 72.9891V72.9891Z" fill="#3F3D56"/>
<path d="M345.794 89.8684C346.183 89.4799 346.535 89.053 346.843 88.5939C347.174 88.0251 347.439 87.4181 347.631 86.7855L349.918 80.13C350.28 79.0781 350.643 78.0221 351.1 76.9985C351.573 75.894 352.133 74.8299 352.65 73.7618C353.978 70.951 355.005 68.0005 355.713 64.9621C355.837 64.5446 355.879 64.1058 355.835 63.6715C355.725 62.9716 355.208 62.4253 354.715 61.9277C354.22 61.3784 353.655 60.8995 353.036 60.5036C352.725 60.3052 352.379 60.1722 352.017 60.1125C351.656 60.0528 351.287 60.0674 350.931 60.1556C349.921 60.4591 349.287 61.5191 349.054 62.5831C348.822 63.6472 348.908 64.7355 348.81 65.8198C348.668 67.3734 348.147 68.8745 348.021 70.4321C347.954 71.3343 348.021 72.2446 347.915 73.1428C347.721 74.3223 347.32 75.4559 346.732 76.4888C345.451 78.9491 343.721 81.1331 341.635 82.9217C341.063 83.3546 340.549 83.8618 340.105 84.4308C339.734 84.9998 339.483 85.6419 339.368 86.3161C339.106 87.3428 339.22 88.4323 339.687 89.3788C340.33 90.5036 341.564 90.9972 342.743 91.248C344.335 91.5879 344.702 91.0296 345.794 89.8684Z" fill="#BE6F72"/>
<path d="M315.225 38.7612C315.565 38.1067 316.084 37.5692 316.72 37.2159C317.355 36.8627 318.077 36.7092 318.797 36.7747C319.522 36.9064 320.196 37.2438 320.744 37.7486C321.292 38.2534 321.69 38.9055 321.896 39.631C322.081 40.2339 322.156 40.9014 322.479 41.4193C322.968 42.2001 323.875 42.4267 324.553 42.9931C324.958 43.3791 325.283 43.8442 325.511 44.3611C325.738 44.878 325.863 45.4363 325.877 46.0032C325.915 47.1613 325.737 48.3162 325.353 49.4058C325.19 49.8707 325.058 50.3465 324.959 50.8299C324.88 51.2993 324.872 51.7767 324.801 52.246C324.714 52.8545 324.509 53.439 324.198 53.965C323.887 54.4909 323.477 54.9478 322.992 55.3087C322.853 55.4244 322.681 55.4886 322.503 55.4908C322.195 55.4544 322.006 55.0862 321.892 54.7544C321.265 52.8974 321.415 50.6276 320.26 49.1469C319.734 48.5495 319.099 48.0642 318.391 47.7187C318.102 47.5275 317.777 47.402 317.437 47.3505C316.937 47.3781 316.456 47.5584 316.057 47.8684C315.225 48.4412 314.302 48.8602 313.329 49.1064C312.844 49.2244 312.339 49.2297 311.851 49.1219C311.363 49.0141 310.905 48.796 310.51 48.4833C309.966 48.0221 309.568 47.3303 308.965 46.9702C308.362 46.6101 307.731 46.6303 307.136 46.3836C306.756 46.218 306.419 45.9657 306.149 45.6459C305.879 45.3262 305.684 44.9474 305.578 44.5384C305.472 44.1295 305.459 43.7012 305.539 43.2861C305.619 42.8711 305.79 42.4803 306.04 42.1435C306.434 41.658 307.017 41.3829 307.368 40.8448C307.822 40.1489 307.782 39.1941 307.999 38.3606C308.127 37.8333 308.376 37.345 308.725 36.9362C309.074 36.5274 309.513 36.2099 310.006 36.01C310.483 35.8435 310.996 35.8117 311.489 35.9177C311.983 36.0237 312.44 36.2638 312.813 36.6128C313.207 36.977 313.522 37.4463 313.909 37.8266C314.29 38.2013 314.757 38.4717 315.267 38.6131C315.776 38.7545 316.312 38.7623 316.826 38.6357" fill="#3F3D56"/>
<path opacity="0.1" d="M321.706 98.3121C321.477 98.5218 321.314 98.7977 321.24 99.1037C321.165 99.4097 321.182 99.7316 321.288 100.028C321.375 100.218 325.443 99.4125 325.873 99.3519C326.945 99.1941 328.826 99.271 329.547 98.2635C330.833 96.4793 326.851 96.8758 326.122 96.9405C324.734 97.0619 322.763 97.2561 321.706 98.3121Z" fill="black"/>
<path d="M284.696 46.1206C284.522 46.9183 284.422 47.731 284.396 48.5481C283.214 48.7949 281.984 48.3903 280.848 47.9857L277.588 46.8448C277.39 46.7147 277.15 46.667 276.919 46.7113C276.688 46.7557 276.481 46.8887 276.342 47.0835C275.818 47.6418 275.096 48.7018 274.371 49.3289C274.254 49.3162 274.139 49.2904 274.028 49.252C273.48 49.0174 273.563 48.1475 273.957 47.6904C274.351 47.2332 274.935 46.9783 275.293 46.4766C275.46 46.1789 275.647 45.8936 275.853 45.6229C276.117 45.3906 276.433 45.2281 276.772 45.1496C279.046 44.4618 281.451 44.3686 283.769 44.8785C284.164 44.9675 284.613 45.1293 284.731 45.5218C284.77 45.7212 284.758 45.9274 284.696 46.1206Z" fill="#3F3D56"/>
<path opacity="0.1" d="M284.696 46.1206C284.522 46.9183 284.422 47.731 284.396 48.5481C283.214 48.7949 281.984 48.3903 280.848 47.9857L277.588 46.8448C277.39 46.7147 277.15 46.667 276.919 46.7113C276.688 46.7557 276.481 46.8887 276.342 47.0835C275.818 47.6418 275.096 48.7018 274.371 49.3289C274.254 49.3162 274.139 49.2904 274.028 49.252C273.48 49.0174 273.563 48.1475 273.957 47.6904C274.351 47.2332 274.935 46.9783 275.293 46.4766C275.46 46.1789 275.647 45.8936 275.853 45.6229C276.117 45.3906 276.433 45.2281 276.772 45.1496C279.046 44.4618 281.451 44.3686 283.769 44.8785C284.164 44.9675 284.613 45.1293 284.731 45.5218C284.77 45.7212 284.758 45.9274 284.696 46.1206Z" fill="black"/>
<path opacity="0.1" d="M314.52 122.931C315.087 123.125 315.702 123.409 315.895 123.991L311.33 122.802L308.965 122.183C308.547 122.073 307.049 121.948 306.773 121.612C306.379 121.119 307.778 121.458 308.031 121.495C308.795 121.612 309.56 121.734 310.321 121.875C311.756 122.138 313.136 122.571 314.52 122.931Z" fill="black"/>
<path opacity="0.1" d="M316.29 127.078C315.895 126.807 314.764 126.839 314.279 126.722C313.569 126.548 312.872 126.317 312.174 126.095C310.758 125.622 309.355 125.083 307.9 124.736C307.632 124.675 306.718 124.659 306.761 124.311C306.804 123.963 307.676 123.841 307.892 123.825C309.182 123.728 310.79 124.347 311.989 124.788C313.516 125.35 314.963 126.12 316.29 127.078V127.078Z" fill="black"/>
<path opacity="0.1" d="M313.396 119.233C311.949 118.829 310.636 117.906 309.146 117.728C308.758 117.743 308.376 117.624 308.062 117.388C307.887 117.212 307.765 116.987 307.711 116.741C308.709 116.688 309.868 117.121 310.774 117.53C311.273 117.75 311.753 118.012 312.209 118.315C312.541 118.521 313.037 119.116 313.396 119.233Z" fill="black"/>
<path d="M340.976 83.0066C340.732 84.6887 341.086 86.4049 341.973 87.8411C342.861 89.2773 344.223 90.3373 345.81 90.8273C345.616 91.7861 344.651 92.3161 343.969 92.9999C343.007 93.9588 342.51 95.395 341.375 96.1233C340.109 96.9325 338.481 96.6169 337.038 96.277C336.907 96.262 336.786 96.197 336.699 96.095C336.669 96.0465 336.648 95.9931 336.636 95.9372C336.159 94.1449 335.847 92.2312 336.336 90.4348C336.731 88.9055 337.677 87.6027 338.434 86.2514C339.191 84.9001 339.261 83.4517 340.976 83.0066Z" fill="#3F3D56"/>
<path d="M305.728 59.8077C304.202 59.9217 302.72 60.3848 301.392 61.163C300.509 61.6809 299.602 62.3768 298.593 62.2514C297.997 62.1826 297.41 61.8468 296.83 62.0086C296.504 62.1438 296.199 62.3294 295.928 62.5589C295.79 62.6716 295.626 62.7457 295.452 62.774C295.278 62.8024 295.099 62.784 294.934 62.7207L294.54 68.3202C294.39 70.4483 294.244 72.6209 294.741 74.6964C294.997 75.7564 295.561 76.7193 295.624 77.7955C295.687 78.8717 295.592 79.9763 295.667 81.0646C295.738 82.072 295.955 83.0632 296.01 84.0707C296.121 85.9722 295.663 87.8576 295.222 89.7065C294.556 92.4334 294.154 95.221 292.856 97.689C292.494 98.3727 292.068 99.0686 292.068 99.8454C292.068 99.9425 292.068 100.036 292.092 100.129C291.697 100.351 291.331 100.562 290.996 100.78C290.247 101.278 289.446 101.832 289.139 102.694C288.891 103.394 289.005 104.195 288.705 104.87C288.406 105.546 287.72 106.027 287.57 106.756C287.463 107.286 287.668 107.844 287.57 108.374C287.481 108.648 287.408 108.928 287.353 109.212C287.314 109.818 287.814 110.308 288.311 110.64C289.035 111.13 289.835 111.491 290.676 111.708L293.03 102.119C295.176 98.0475 296.961 93.7863 298.364 89.3869C298.765 87.9489 299.281 86.547 299.905 85.1954C300.352 84.4308 300.747 83.636 301.088 82.8164C301.447 81.7969 301.482 80.6924 301.656 79.6162C301.862 78.3601 302.172 77.1243 302.582 75.9223C303.008 74.6236 303.501 73.3289 303.587 71.9655C303.718 70.0154 303.028 67.956 303.761 66.1516C304.072 65.4762 304.477 64.8507 304.963 64.2945C305.98 63.016 306.907 61.6769 307.924 60.3984C307.396 59.8198 306.517 59.7591 305.728 59.8077Z" fill="#3F3D56"/>
<g opacity="0.1">
<path opacity="0.1" d="M316.838 37.4301L316.345 37.4665L316.29 37.5069C316.474 37.4992 316.658 37.4735 316.838 37.4301V37.4301Z" fill="black"/>
<path opacity="0.1" d="M325.858 45.8292C325.775 46.6336 325.606 47.4261 325.353 48.192C325.19 48.6569 325.058 49.1328 324.959 49.6162C324.88 50.0855 324.872 50.5629 324.801 51.0322C324.714 51.6407 324.509 52.2252 324.198 52.7512C323.887 53.2772 323.477 53.734 322.992 54.0949C322.853 54.2106 322.681 54.2748 322.503 54.277C322.195 54.2406 322.006 53.8724 321.892 53.5406C321.265 51.6836 321.415 49.4139 320.26 47.9331C319.734 47.3357 319.099 46.8504 318.391 46.5049C318.102 46.3137 317.777 46.1882 317.437 46.1367C316.937 46.1643 316.456 46.3447 316.057 46.6546C315.225 47.2274 314.302 47.6464 313.329 47.8926C312.844 48.0106 312.339 48.0159 311.851 47.9082C311.363 47.8004 310.905 47.5822 310.51 47.2696C309.966 46.8083 309.568 46.1165 308.965 45.7564C308.362 45.3963 307.731 45.4166 307.136 45.1698C306.764 45.0068 306.433 44.7599 306.166 44.4475C305.9 44.1352 305.706 43.7653 305.598 43.3653C305.584 43.3149 305.574 43.2635 305.567 43.2116C305.468 43.6632 305.479 44.1327 305.598 44.5791C305.706 44.979 305.9 45.3489 306.166 45.6613C306.433 45.9737 306.764 46.2205 307.136 46.3835C307.731 46.6303 308.401 46.6344 308.965 46.9702C309.529 47.306 309.966 48.0221 310.51 48.4833C310.905 48.7959 311.363 49.0141 311.851 49.1219C312.339 49.2297 312.844 49.2244 313.329 49.1064C314.302 48.8601 315.225 48.4411 316.057 47.8683C316.456 47.5584 316.937 47.3781 317.437 47.3505C317.777 47.402 318.102 47.5275 318.391 47.7186C319.09 48.0709 319.716 48.5602 320.232 49.159C321.387 50.6398 321.237 52.9095 321.864 54.7665C321.978 55.1023 322.168 55.4665 322.475 55.5029C322.664 55.5039 322.848 55.4349 322.992 55.3087C323.479 54.9468 323.891 54.4882 324.202 53.96C324.514 53.4318 324.719 52.8448 324.805 52.2338C324.876 51.7645 324.884 51.2871 324.963 50.8178C325.062 50.3344 325.194 49.8586 325.357 49.3936C325.741 48.304 325.919 47.1492 325.881 45.9911C325.873 45.9425 325.866 45.8859 325.858 45.8292Z" fill="black"/>
</g>
<path d="M300.915 78.2932L300.647 81.987C300.607 82.4887 299.673 94.4321 292.782 108.39C286.868 120.362 275.361 135.955 253.635 144.718C251.939 145.406 250.18 146.048 248.356 146.644L246.322 140.09C251.429 138.44 256.348 136.232 260.995 133.503C272.069 126.941 280.679 117.574 286.683 105.522C289.868 99.1047 292.139 92.2511 293.424 85.1711H268.706V78.2932H300.915Z" fill="#F9A826"/>
<path opacity="0.1" d="M250.974 144.722C272.696 135.959 284.207 120.37 290.117 108.398C297.008 94.4402 297.946 82.5049 297.982 81.9951L298.25 78.3013H301.009L300.741 81.9951C300.706 82.4968 299.767 94.4402 292.876 108.398C286.963 120.37 275.455 135.959 253.733 144.722C252.038 145.41 250.277 146.053 248.45 146.652L248.182 145.79C249.134 145.442 250.064 145.086 250.974 144.722Z" fill="white"/>
<path d="M207.482 140.09L205.448 146.644C203.621 146.045 201.86 145.402 200.165 144.714C178.443 135.951 166.931 120.362 161.022 108.39C154.131 94.4321 153.192 82.4968 153.157 81.987L152.889 78.2932H185.082V85.1711H160.36C161.652 92.252 163.929 99.1056 167.121 105.522C173.125 117.574 181.731 126.941 192.805 133.499C197.452 136.231 202.373 138.44 207.482 140.09V140.09Z" fill="#F9A826"/>
<path opacity="0.1" d="M202.822 144.722C181.1 135.959 169.589 120.37 163.679 108.398C156.788 94.4402 155.85 82.5049 155.814 81.9951L155.546 78.3013H152.786L153.054 81.9951C153.09 82.4968 154.028 94.4402 160.919 108.398C166.833 120.37 178.34 135.959 200.063 144.722C201.758 145.41 203.519 146.053 205.345 146.652L205.613 145.79C204.665 145.442 203.734 145.086 202.822 144.722Z" fill="white"/>
<path d="M264.09 203.448V240.536H189.71V203.448L192.075 200.211C216.179 191.431 221.063 168.536 222.037 159.477C222.182 158.225 222.265 156.967 222.285 155.707H231.483C231.503 156.967 231.586 158.225 231.731 159.477C232.721 168.536 237.605 191.44 261.693 200.211L264.09 203.448Z" fill="#F9A826"/>
<path opacity="0.1" d="M264.09 203.448H189.71V208.1H264.09V203.448Z" fill="black"/>
<path opacity="0.1" d="M196.018 200.211C220.121 191.431 225.005 168.536 225.979 159.477C226.124 158.225 226.207 156.967 226.228 155.707H222.285C222.265 156.967 222.182 158.225 222.037 159.477C221.047 168.536 216.163 191.44 192.075 200.211L189.71 203.448V240.536H193.652V203.448L196.018 200.211Z" fill="white"/>
<path opacity="0.1" d="M178.411 78.2932H185.082V85.1711H179.003C178.764 82.9055 178.566 80.6128 178.411 78.2932Z" fill="black"/>
<path opacity="0.1" d="M207.482 140.09L205.448 146.644C203.621 146.045 201.86 145.402 200.165 144.714C197.376 141.219 194.912 137.464 192.805 133.499C197.452 136.231 202.373 138.44 207.482 140.09Z" fill="black"/>
<path opacity="0.1" d="M246.318 140.09C251.425 138.44 256.344 136.232 260.991 133.503C258.882 137.469 256.418 141.225 253.631 144.722C251.935 145.41 250.176 146.052 248.352 146.648L246.318 140.09Z" fill="black"/>
<path opacity="0.1" d="M275.384 78.2932C275.229 80.6128 275.032 82.9055 274.793 85.1711H268.718V78.2932H275.384Z" fill="black"/>
<path opacity="0.1" d="M231.747 159.477C228.545 160.114 225.254 160.114 222.053 159.477C222.198 158.225 222.281 156.967 222.301 155.707H231.498C231.519 156.967 231.602 158.225 231.747 159.477V159.477Z" fill="black"/>
<path d="M179.2 66.9001C179.369 117.902 200.658 159.146 226.902 159.146C253.146 159.146 274.43 117.902 274.604 66.9001H179.2Z" fill="#F9A826"/>
<path opacity="0.1" d="M187.676 66.9001H179.2C179.369 117.902 200.658 159.146 226.902 159.146C228.322 159.143 229.739 159.02 231.14 158.777C206.879 154.618 187.837 115.127 187.676 66.9001Z" fill="white"/>
<path d="M252.196 217.645H201.604V230.996H252.196V217.645Z" fill="#3F3D56"/>
<path opacity="0.1" d="M203.969 219.465H252.196V217.645H201.604V230.996H203.969V219.465Z" fill="white"/>
<path d="M152.219 116.142C151.308 115.831 145.946 111.477 145.54 109.507C145.134 107.537 148.375 89.1806 148.375 89.1806C148.375 89.1806 148.075 89.1806 147.586 89.1199V88.8245L148.253 64.7113C148.253 64.7113 150.985 48.5279 145.824 49.4705C140.664 50.4132 143.9 64.7113 143.9 64.7113C143.9 64.7113 143.313 71.9695 142.899 74.1462C142.505 76.246 140.699 84.7989 141.929 87.457C141.974 87.5515 142.024 87.6433 142.079 87.7322V87.7322C142.079 87.7322 142.284 96.8556 140.057 98.1017C137.932 99.2871 137.049 105.255 136.974 105.789L136.859 105.74C136.225 105.333 135.668 104.811 135.215 104.199C135.168 104.138 135.133 104.073 135.089 104.009C136.54 102.334 137.321 100.16 137.278 97.9194C137.235 95.6793 136.37 93.5382 134.857 91.9237C134.153 91.1734 133.327 90.5546 132.416 90.0949C132.39 89.3219 132.212 88.5622 131.892 87.8616C130.867 85.6121 125.19 82.6708 121.157 82.602C119.296 82.5454 117.771 83.0875 117.215 84.5804C116.931 85.337 117.018 86.1988 116.899 86.9837C116.663 88.602 115.65 89.8684 114.349 90.8758C113.823 90.274 113.256 89.7128 112.65 89.1968C111.333 88.161 108.707 84.7463 108.707 84.7463C108.707 84.7463 100.511 76.0356 99.9042 73.6486C99.2971 71.2615 91.1089 56.9271 89.2876 59.4233C87.4662 61.9196 95.5598 72.7989 95.5598 72.7989C95.5598 72.7989 97.0973 76.7517 98.28 78.0869C99.4627 79.422 108.53 92.9351 108.53 92.9351L108.964 93.8576C107.048 94.8933 105.297 96.2123 104.678 98.2676C103.772 101.294 105.755 104.336 107.127 107.168C109.799 112.695 110.182 119.743 106.732 124.792C103.641 129.251 98.28 131.371 93.2614 133.224C95.6851 135.177 98.6961 136.203 101.777 136.125C100.618 139.572 96.5099 140.713 93.0091 141.352C94.8462 143.164 97.4757 143.824 99.9988 144.224C101.235 144.44 102.487 144.542 103.74 144.528H104.048L104.355 144.504C104.782 144.474 105.208 144.419 105.628 144.338C107.45 143.957 109.22 142.938 110.15 141.287C110.939 139.875 111.215 137.949 112.646 137.241C113.018 137.069 113.42 136.971 113.828 136.954H113.785C114.053 136.954 114.329 136.954 114.597 136.954L120.562 137.015C120.81 137.015 121.067 137.015 121.323 137.015C123.006 136.974 124.804 136.675 125.659 135.247C126.011 134.553 126.196 133.783 126.199 133.001C126.326 131.063 126.199 129.069 126.251 127.114C126.759 130.671 127.291 136.214 126.026 138.261C124.998 139.812 123.752 141.199 122.328 142.375C121.97 142.684 121.642 143.028 121.35 143.403C121.157 143.545 121.043 143.622 121.043 143.622L120.921 143.998C120.471 144.697 120.146 145.472 119.959 146.288C119.89 146.497 119.864 146.719 119.884 146.939C120.022 147.226 118.898 148.412 119.225 148.909C116.419 152.288 115.886 157.406 115.886 157.406L110.761 165.392C108.128 172.493 104.186 173.221 104.186 173.221C104.186 173.221 94.9251 166.845 94.6728 166.533C94.4204 166.222 90.8802 164.664 90.8802 164.664C90.4628 163.913 89.8256 163.315 89.0589 162.957C87.8447 162.439 87.7422 160.529 87.7422 160.529C87.5924 156.018 85.0101 155.674 85.0101 155.674C82.9286 155.492 81.3399 155.872 80.1177 156.568L79.7472 156.597C77.9574 156.746 75.8049 156.912 73.4395 157.074C66.8598 157.519 65.2947 161.893 65.2947 161.893C65.2947 161.893 64.4865 162.827 65.547 163.839C66.6075 164.85 73.3961 163.839 73.6839 163.814C73.1665 163.872 72.6433 163.835 72.1385 163.705C73.2069 163.665 74.6774 163.624 75.931 163.624H76.2346C76.1557 164.306 76.1175 164.993 76.1202 165.68C76.1202 166.974 79.6092 167.804 79.6092 167.804L90.2337 177.514C90.2337 177.514 96.912 180.576 101.162 184.982C105.412 189.388 109.169 185.585 109.169 185.585C113.667 184.444 126.609 168.386 126.621 168.37C126.621 168.839 126.893 184.456 127.41 187.592C127.43 187.751 127.469 187.907 127.524 188.057C128.131 189.404 127.319 193.086 126.968 194.64C126.744 195.94 126.658 197.261 126.712 198.58C126.712 198.58 121.859 217.596 122.261 219.267C122.663 220.938 119.632 228.702 119.632 228.702V235.175L120.16 235.147C120.091 235.251 120.028 235.359 119.971 235.47L119.935 235.539C119.935 235.539 123.172 236.263 125.348 236.057C127.524 235.851 131.261 237.777 131.261 237.777C131.261 237.777 132.527 238.392 136.422 238.651C140.317 238.909 140.317 236.887 140.317 236.887C139.871 234.131 133.717 233.209 133.528 233.181C133.031 232.861 132.566 232.513 132.184 232.214L132.105 232.149C132.131 232.088 132.153 232.026 132.172 231.963C132.83 229.212 129.188 228.018 129.188 228.018V227.346C131.553 226.1 132.022 217.547 132.022 217.547C132.022 217.547 135.57 206.972 136.067 205.208C136.564 203.444 136.067 200.802 136.067 200.802L136.422 198.52C136.422 198.52 137.183 196.966 137.183 196.655C137.281 195.865 137.577 195.115 138.042 194.478C138.598 193.802 137.435 192.196 137.435 192.196L138.448 189.502V186.544L140.814 175.814C140.814 175.814 143.293 163.317 142.434 159.226C141.574 155.136 143.447 153.056 143.447 153.056C143.278 153.148 143.104 153.229 142.927 153.299C143.163 152.738 143.367 152.162 143.538 151.576L148.86 152.251V152.332H150.78C150.78 152.332 150.173 144.645 150.173 141.546C150.173 138.447 152.219 127.325 152.219 127.325C152.219 127.325 153.129 116.454 152.219 116.142ZM128.592 107.168C128.592 107.472 128.565 107.787 128.545 108.111L128.439 108.277L128.242 108.107L128.001 108.491L127.93 108.528C127.41 108.253 127.142 106.679 126.767 107.019L126.716 107.063C126.633 106.966 126.55 106.938 126.464 107.019L126.385 107.088C126.385 106.97 126.385 106.849 126.385 106.727C127.106 106.918 127.848 107.014 128.592 107.015C128.596 107.067 128.592 107.12 128.592 107.168ZM146.293 142.966H146.408L146.218 143.476C146.242 143.306 146.266 143.14 146.293 142.966V142.966ZM126.862 234.714L126.136 234.528L126.531 234.459L126.897 234.706L126.941 234.738L126.862 234.714ZM134.273 233.626C134.033 233.496 133.788 233.346 133.552 233.193C133.631 233.237 133.942 233.403 134.273 233.626V233.626Z" fill="url(#paint1_linear)"/>
<path d="M148.911 135.324L144.137 148.092H145.296L140.806 151.766L148.911 152.802V135.324Z" fill="#F86D70"/>
<path opacity="0.1" d="M148.911 135.324L144.137 148.092L142.935 147.76L140.806 151.766L148.911 152.802V135.324Z" fill="black"/>
<path d="M141.425 143.492H148.911L151.659 120.289H141.425V143.492Z" fill="#F86D70"/>
<path opacity="0.1" d="M141.425 143.492H148.911L151.659 120.289H141.425V143.492Z" fill="black"/>
<path d="M126.802 125.783L128.419 125.504L132.132 124.857C132.132 124.857 143.285 122.276 145.588 122.065C146.982 121.876 148.342 121.478 149.624 120.884C150.228 120.617 150.61 120.415 150.61 120.415L146.593 112.885L140.36 108.143C140.36 108.143 136.418 107.282 134.75 104.927C134.378 104.42 134.136 103.826 134.045 103.198C133.955 102.571 134.02 101.93 134.234 101.334C135.251 98.0977 128.159 104.429 128.159 104.429C128.159 104.429 128.226 105.947 128.159 107.881C128.159 108.261 128.123 108.657 128.096 109.062C128.096 109.329 128.06 109.596 128.032 109.871C127.859 111.793 127.504 113.771 126.802 114.953C125.088 117.841 126.802 125.783 126.802 125.783Z" fill="#FBBEBE"/>
<path opacity="0.1" d="M128.159 108.042H128.316C128.6 108.042 128.829 107.423 129.105 107.395C131.324 107.177 133.351 106.699 134.758 105.085C134.387 104.578 134.145 103.985 134.055 103.358C133.965 102.731 134.029 102.091 134.242 101.496C135.259 98.2595 128.167 104.587 128.167 104.587C128.167 104.587 128.241 106.108 128.159 108.042Z" fill="black"/>
<path d="M119.525 98.8663C119.525 100.031 119.748 101.185 120.182 102.261C120.616 103.337 121.252 104.315 122.055 105.139C122.858 105.962 123.81 106.615 124.859 107.061C125.908 107.506 127.032 107.735 128.167 107.735C128.451 107.735 128.73 107.735 129.01 107.694C130.675 107.527 132.257 106.867 133.564 105.794C134.871 104.722 135.846 103.283 136.371 101.653C136.896 100.023 136.949 98.2712 136.524 96.6108C136.098 94.9503 135.211 93.4524 133.972 92.2989C132.733 91.1455 131.194 90.386 129.542 90.1128C127.89 89.8395 126.197 90.0642 124.667 90.7596C123.137 91.455 121.837 92.5912 120.924 94.0303C120.012 95.4693 119.526 97.1493 119.525 98.8663Z" fill="#FBBEBE"/>
<path d="M116.872 85.4058C116.588 86.1583 116.675 86.9999 116.561 87.7969C116.139 90.6735 113.288 92.397 110.71 93.6027C108.132 94.8084 105.222 96.2366 104.402 99.0161C103.504 102.022 105.467 105.036 106.831 107.856C109.488 113.351 109.867 120.358 106.437 125.383C103.389 129.833 98.079 131.945 93.0802 133.798C95.486 135.741 98.4762 136.762 101.536 136.687C100.389 140.114 96.3089 141.251 92.8318 141.882C94.6571 143.686 97.2708 144.342 99.7742 144.738C101.599 145.03 103.472 145.22 105.293 144.843C107.115 144.467 108.842 143.452 109.78 141.809C110.568 140.405 110.836 138.491 112.259 137.783C112.902 137.524 113.594 137.42 114.282 137.48L120.195 137.545C122.036 137.545 124.217 137.399 125.167 135.785C125.517 135.095 125.701 134.329 125.703 133.551C125.959 129.57 125.214 125.363 126.811 121.729C127.292 120.633 124.205 118.897 124.528 117.736C125.64 113.743 125.92 110.599 125.908 106.444C125.908 103.228 127.946 100.456 129.629 97.7416C131.313 95.0268 132.72 91.6 131.392 88.687C129.893 85.4382 118.642 80.7167 116.872 85.4058Z" fill="#3F3D56"/>
<path d="M124.745 233.549L126.251 234.572L126.483 234.73L126.527 234.758L128.312 235.972L132.483 236.692L136.15 236.433C136.15 236.433 137.206 234.168 135.547 234.22C135.015 234.192 134.497 234.039 134.033 233.771L133.804 233.654C133.564 233.524 133.323 233.379 133.087 233.225C132.594 232.905 132.129 232.558 131.754 232.262C131.202 231.825 130.835 231.493 130.835 231.493L124.745 233.549Z" fill="#FBBEBE"/>
<path opacity="0.1" d="M126.27 234.572L126.503 234.73L126.546 234.758L128.332 235.972L132.503 236.692L136.169 236.433C136.169 236.433 137.226 234.168 135.566 234.22C135.035 234.192 134.517 234.039 134.052 233.771C134.344 234.006 134.589 234.261 134.612 234.475C134.679 235.054 131.9 236.094 131.9 236.094L127.981 235.03C127.981 235.03 127.315 234.835 126.404 234.593L126.318 234.568L126.27 234.572Z" fill="black"/>
<path d="M119.568 235.56C119.568 235.56 122.781 236.28 124.942 236.073C127.102 235.867 130.824 237.777 130.824 237.777C130.824 237.777 132.081 238.384 135.949 238.643C139.816 238.901 139.816 236.887 139.816 236.887C139.375 234.148 133.264 233.245 133.075 233.205C133.15 233.245 133.469 233.411 133.792 233.634C134.226 233.925 134.695 234.305 134.73 234.613C134.797 235.187 132.018 236.231 132.018 236.231L128.1 235.171C128.1 235.171 127.433 234.973 126.523 234.73H126.436C125.086 234.353 123.714 234.062 122.328 233.86C120.641 233.674 119.777 235.147 119.6 235.479C119.587 235.505 119.576 235.532 119.568 235.56V235.56Z" fill="#3F3D56"/>
<path d="M68.9255 162.803L70.6326 164.146C70.6326 164.146 71.1293 164.122 71.8704 164.098H72.107C73.1675 164.057 74.6301 164.017 75.8719 164.017C76.6746 163.98 77.479 164.026 78.2727 164.154C79.1243 164.462 80.6381 159.154 80.6381 159.154L78.9272 158.749L78.3595 158.611L77.9653 158.514L76.5736 158.179L72.3553 158.672L69.3907 160.63L68.9255 162.803Z" fill="#FBBEBE"/>
<path opacity="0.1" d="M68.9255 162.803L70.6326 164.146C70.6326 164.146 71.1293 164.122 71.8704 164.098C71.5303 163.963 71.2499 163.705 71.082 163.373C69.9781 160.23 75.454 158.887 75.454 158.887L78.0047 158.773L78.5014 158.749H78.8956L78.3279 158.611L77.9337 158.514L76.5421 158.179L72.3238 158.672L69.3592 160.63L68.9255 162.803Z" fill="black"/>
<path d="M65.5588 164.223C66.5916 165.202 73.3566 164.223 73.6405 164.199C73.1271 164.258 72.6074 164.221 72.1069 164.09C71.8592 164.044 71.6244 163.942 71.4198 163.792C71.2152 163.641 71.0459 163.446 70.9242 163.22C69.8204 160.072 75.2963 158.733 75.2963 158.733L77.8469 158.62L78.3397 158.595L84.541 158.32L84.8406 156.568C84.8406 156.568 82.8261 156.763 79.6643 157.021C77.8864 157.171 75.722 157.337 73.3842 157.495C66.8518 157.94 65.2986 162.289 65.2986 162.289C65.2986 162.289 64.5062 163.22 65.5588 164.223Z" fill="#3F3D56"/>
<path d="M141.429 88.2824C141.471 88.3784 141.521 88.4705 141.578 88.5575L143.084 90.8232L147.003 91.2278L147.046 89.6337L147.705 65.6499C147.705 65.6499 150.417 49.5636 145.292 50.4901C140.167 51.4166 143.384 65.6499 143.384 65.6499C143.384 65.6499 142.801 72.8677 142.391 75.0363C141.992 77.132 140.207 85.6526 141.429 88.2824Z" fill="#FBBEBE"/>
<path d="M132.633 147.854L133.749 149.812L136.244 154.193C136.244 154.193 140.77 155.897 141.929 154.598C142.564 153.89 143.25 151.418 143.731 149.338C144.125 147.655 144.389 146.235 144.389 146.235L132.633 147.854Z" fill="#FBBEBE"/>
<path opacity="0.1" d="M132.633 147.854L133.749 149.812C133.819 149.75 133.882 149.681 133.938 149.605C135.2 147.955 140.754 149.253 143.731 149.359C144.125 147.676 144.389 146.255 144.389 146.255L132.633 147.854Z" fill="black"/>
<path opacity="0.1" d="M75.8718 164.009C76.6746 163.972 77.4789 164.018 78.2727 164.146C79.1242 164.454 80.6381 159.146 80.6381 159.146L78.3594 158.595L84.5607 158.32L84.8603 156.568C84.8603 156.568 82.8458 156.763 79.684 157.021C79.0307 157.408 78.4478 157.907 77.9612 158.498L77.8666 158.62C76.546 160.282 76.0571 162.427 75.8718 164.009Z" fill="black"/>
<path opacity="0.1" d="M124.745 233.549L126.483 234.73C129.077 234.249 131.447 233.492 131.726 232.303C131.728 232.284 131.728 232.265 131.726 232.246C131.175 231.809 130.808 231.477 130.808 231.477L124.745 233.549Z" fill="black"/>
<path opacity="0.1" d="M119.604 235.491C121.895 235.374 124.177 235.123 126.44 234.738C125.088 234.358 123.715 234.065 122.328 233.86C120.645 233.674 119.781 235.147 119.604 235.491Z" fill="black"/>
<path d="M76.0613 166.052C76.0613 167.342 79.5266 168.168 79.5266 168.168L90.0801 177.809C90.0801 177.809 96.7111 180.851 100.929 185.233C105.148 189.615 108.869 185.852 108.869 185.852C113.34 184.719 126.215 168.734 126.215 168.734C126.215 168.734 126.515 186.989 127.118 188.328C127.721 189.667 126.917 193.329 126.566 194.878C126.345 196.171 126.26 197.484 126.314 198.795C126.314 198.795 121.492 217.717 121.895 219.368C122.297 221.019 119.281 228.754 119.281 228.754V235.199C119.281 235.199 131.088 234.734 131.738 232.003C132.389 229.272 128.778 228.083 128.778 228.083V227.411C131.143 226.173 131.589 217.669 131.589 217.669C131.589 217.669 135.109 207.15 135.61 205.398C136.111 203.646 135.61 201.012 135.61 201.012L135.961 198.746C135.961 198.746 136.714 197.197 136.714 196.889C136.812 196.104 137.107 195.358 137.569 194.725C138.121 194.053 136.966 192.455 136.966 192.455L137.971 189.773V186.835L140.337 176.162C140.337 176.162 142.801 163.733 141.945 159.659C141.09 155.585 142.95 153.526 142.95 153.526C138.917 155.694 136.883 150.868 136.217 148.792C136.047 148.258 135.965 147.902 135.965 147.902C135.965 147.902 130.426 145.806 125.269 146.308C124.222 146.395 123.19 146.619 122.198 146.976C116.47 149.092 115.567 157.855 115.567 157.855L110.493 165.797C107.88 172.861 103.961 173.581 103.961 173.581C103.961 173.581 94.7675 167.241 94.4995 166.93C94.2314 166.618 90.7306 165.073 90.7306 165.073C90.3167 164.325 89.6835 163.73 88.9211 163.373C87.7147 162.856 87.6162 160.946 87.6162 160.946C87.4664 156.459 84.9039 156.091 84.9039 156.091C76.01 155.33 76.0613 164.765 76.0613 166.052Z" fill="#3F3D56"/>
<path d="M127.209 140.842H132.633V123.57H127.209V140.842Z" fill="#F86D70"/>
<path opacity="0.1" d="M127.209 140.842H132.633V123.57H127.209V140.842Z" fill="black"/>
<path opacity="0.1" d="M141.424 88.246C141.424 88.2581 141.424 88.2703 141.424 88.2824C141.466 88.3785 141.517 88.4705 141.574 88.5575L143.08 90.8232L146.999 91.2278L147.042 89.6337C145.82 89.5366 143.037 89.1927 141.424 88.246Z" fill="black"/>
<path d="M141.578 88.5575C141.578 88.5575 141.78 97.6283 139.568 98.8664C137.356 100.104 136.497 106.553 136.497 106.553C136.497 106.553 143.199 111.077 144.693 113.067C146.187 115.058 149.617 119.8 148.911 120.932C148.205 122.065 150.622 127.224 150.622 127.224C150.622 127.224 146.199 136.505 147.204 140.013C148.209 143.52 148.308 152.798 148.308 152.798H150.22C150.22 152.798 149.617 145.167 149.617 142.072C149.617 138.977 151.623 127.944 151.623 127.944C151.623 127.944 152.53 117.117 151.623 116.81C150.717 116.502 145.395 112.169 144.992 110.207C144.59 108.245 147.807 89.9776 147.807 89.9776C147.807 89.9776 143.688 89.7956 141.578 88.5575Z" fill="#F86D70"/>
<path opacity="0.1" d="M127.106 121.968C127.29 123.23 127.737 124.437 128.419 125.504L132.133 124.857C132.133 124.857 143.285 122.276 145.588 122.065C146.982 121.876 148.343 121.478 149.625 120.884C148.741 117.67 147.016 114.767 144.638 112.489L143.222 111.141C141.137 109.154 138.72 107.569 136.087 106.46C136.252 106.602 147.953 116.854 145.391 118.865C142.828 120.876 135.929 115.98 135.929 115.98L128.084 109.062L127.8 108.811L127.347 109.535C127.577 109.633 127.802 109.743 128.021 109.867C130.695 111.373 132.679 113.904 133.54 116.907C135.152 122.47 127.106 121.968 127.106 121.968Z" fill="black"/>
<path d="M124.693 147.748C124.693 147.748 132.129 151.976 133.934 149.605C134.328 149.083 135.16 148.857 136.197 148.796C136.027 148.262 135.945 147.906 135.945 147.906C135.945 147.906 130.406 145.81 125.249 146.312C124.91 147.186 124.693 147.748 124.693 147.748Z" fill="#444053"/>
<path d="M128.115 108.819L136.244 115.996C136.244 115.996 143.116 120.908 145.706 118.881C148.296 116.854 136.398 106.473 136.398 106.473C139.025 107.584 141.44 109.165 143.53 111.141L144.945 112.489C148.667 116.029 149.506 116.029 149.632 121.232C149.664 122.514 149.238 124.355 148.911 124.687C147.705 125.901 146.861 134.717 147.046 135.748C147.232 136.78 144.799 145.685 145.588 148.161C146.376 150.637 135.732 146.923 133.93 149.298C132.129 151.673 124.693 147.441 124.693 147.441C124.693 147.441 128.813 136.61 129.818 135.89C130.824 135.17 132.03 129.599 129.818 127.021C127.607 124.444 127.41 121.968 127.41 121.968C127.41 121.968 135.452 122.478 133.84 116.915C133.386 115.302 132.599 113.809 131.532 112.537C130.465 111.265 129.144 110.244 127.658 109.543L128.115 108.819Z" fill="#E8E8F0"/>
<path opacity="0.1" d="M138.965 127.074C138.965 127.074 135.846 133.106 131.813 134.672C131.683 134.721 131.557 134.765 131.419 134.806C127.209 136.121 139.28 128.943 138.965 127.074Z" fill="black"/>
<path d="M95.3549 73.7052C95.3549 73.7052 96.8608 77.6256 98.0672 78.9648C99.2735 80.304 108.215 93.7119 108.215 93.7119L108.972 95.3303L109.622 96.7099L115.35 96.0909L115.744 93.72L115.524 93.4449C114.948 92.7369 113.379 90.8353 112.327 90.0059C111.022 88.9783 108.408 85.5757 108.408 85.5757C108.408 85.5757 100.271 76.9095 99.6678 74.5386C99.0646 72.1678 90.9237 57.9506 89.1182 60.4105C87.3126 62.8704 95.3549 73.7052 95.3549 73.7052Z" fill="#FBBEBE"/>
<g opacity="0.1">
<path opacity="0.1" d="M111.975 137.48C111.288 137.419 110.596 137.521 109.953 137.779C108.534 138.487 108.266 140.401 107.477 141.805C106.555 143.448 104.797 144.463 102.987 144.839C102.627 144.911 102.264 144.962 101.899 144.993C103.051 145.108 104.214 145.056 105.352 144.839C107.162 144.463 108.92 143.448 109.843 141.805C110.631 140.401 110.899 138.487 112.318 137.779C112.691 137.607 113.093 137.511 113.501 137.496L111.975 137.48Z" fill="black"/>
<path opacity="0.1" d="M125.978 106.444C125.978 103.228 128.017 100.456 129.696 97.7416C131.375 95.0268 132.787 91.6 131.458 88.687C130.323 86.1988 123.479 82.861 119.529 83.5204C123.396 84.0343 128.162 86.6479 129.093 88.687C130.421 91.6 129.01 95.0268 127.331 97.7416C125.651 100.456 123.605 103.228 123.613 106.444C123.613 110.595 123.341 113.727 122.229 117.736C121.91 118.889 124.989 120.633 124.516 121.725C122.915 125.367 123.664 129.566 123.408 133.547C123.403 134.325 123.218 135.091 122.868 135.781C122.079 137.112 120.463 137.456 118.89 137.529H120.266C122.103 137.529 124.283 137.383 125.233 135.769C125.583 135.078 125.768 134.313 125.773 133.535C126.03 129.554 125.281 125.351 126.881 121.713C127.362 120.621 124.275 118.881 124.595 117.724C125.706 113.743 125.986 110.595 125.978 106.444Z" fill="black"/>
</g>
<path opacity="0.1" d="M108.971 95.3222L109.622 96.7018L115.35 96.0828L115.744 93.7119L115.524 93.4368C114.912 93.7443 110.335 96.0059 108.971 95.3222Z" fill="black"/>
<path opacity="0.1" d="M130.122 110.83C130.122 110.83 128.714 108.564 127.91 109.179C127.106 109.794 126.795 107.322 126.333 107.735C125.872 108.148 124.528 109.297 123.968 107.69C123.53 106.412 118.768 98.3242 116.836 95.0713C116.34 94.2298 116.028 93.7119 116.028 93.7119C116.028 93.7119 110.603 96.4955 109.299 95.569V97.5272L110.402 97.6324L116.316 108.961C116.316 108.961 118.177 111.999 118.051 113.059C117.924 114.119 120.436 118.76 120.838 119.067C121.24 119.375 125.568 124.533 125.568 124.533C125.568 124.533 127.78 135.671 125.868 138.767C123.956 141.862 120.645 144.127 120.645 144.127C120.645 144.127 119.647 147.117 119.793 147.429C119.939 147.74 118.634 149.079 119.237 149.492C119.84 149.905 120.645 152.789 120.645 152.789C120.645 152.789 123.459 148.149 124.981 147.429C126.503 146.709 128.45 137.217 128.45 137.217C128.45 137.217 129.006 131.626 129.05 128.017C129.093 124.408 128.916 110.83 130.122 110.83Z" fill="black"/>
<path d="M129.818 110.83C129.818 110.83 128.415 108.564 127.611 109.179C126.806 109.794 126.491 107.322 126.034 107.735C125.576 108.148 124.232 109.297 123.668 107.69C123.227 106.412 118.465 98.3242 116.537 95.0713L115.729 93.7119C115.729 93.7119 110.304 96.4955 108.995 95.569V97.5272L110.103 97.6324L116.016 108.961C116.016 108.961 117.881 111.999 117.751 113.059C117.621 114.119 120.116 118.76 120.538 119.067C120.96 119.375 125.269 124.533 125.269 124.533C125.269 124.533 127.481 135.671 125.573 138.767C124.565 140.321 123.338 141.714 121.934 142.901C120.754 143.9 119.923 145.267 119.568 146.794C119.5 147.002 119.476 147.222 119.497 147.441C119.643 147.748 118.338 149.092 118.942 149.504C119.545 149.917 120.357 152.814 120.357 152.814C120.357 152.814 123.172 148.173 124.693 147.453C126.215 146.733 128.167 137.241 128.167 137.241C128.167 137.241 128.718 131.65 128.766 128.041C128.813 124.432 128.636 110.83 129.818 110.83Z" fill="#F86D70"/>
<path opacity="0.1" d="M116.052 157.754C116.052 157.754 120.274 158.563 121.965 159.813C123.657 161.063 115.535 157.855 115.535 157.855L116.052 157.754Z" fill="black"/>
<path opacity="0.1" d="M126.203 168.734C126.203 168.734 130.607 172.501 129.818 175.903C129.03 179.306 126.996 187.867 126.996 187.867L126.203 168.734Z" fill="black"/>
<path opacity="0.1" d="M87.6909 161.492C87.6909 161.492 81.4858 162.188 81.8879 163.013C82.29 163.839 87.6909 162.253 87.6909 162.253V161.492Z" fill="black"/>
<path opacity="0.1" d="M135.338 192.815C135.338 192.815 135.732 193.329 133.43 192.815C131.127 192.301 132.826 190.715 132.826 190.715L135.338 192.815Z" fill="black"/>
<path opacity="0.1" d="M134.549 199.932C134.549 199.932 131.395 200.446 129.704 199.932C128.013 199.418 134.549 199.932 134.549 199.932Z" fill="black"/>
<path opacity="0.1" d="M128.06 227.775C128.06 227.775 127.508 227.156 124.745 228.289C121.981 229.422 120.877 229.475 120.073 229.098C119.269 228.722 128.06 227.775 128.06 227.775Z" fill="black"/>
<path opacity="0.1" d="M131.127 160.614L127.209 166.21C127.209 166.21 129.318 161.31 131.127 160.614Z" fill="black"/>
<path opacity="0.1" d="M123.511 109.179C123.511 109.179 123.341 111.036 120.814 111.76C118.287 112.485 117.806 113.071 117.806 113.071" fill="black"/>
<path opacity="0.1" d="M116.943 95.7187C116.943 95.7187 113.608 98.1462 110.126 97.6324Z" fill="black"/>
<path opacity="0.1" d="M119.482 147.696C119.482 147.696 120.455 148.323 122.793 145.58Z" fill="black"/>
<path opacity="0.1" d="M143.762 118.61C143.857 118.108 143.518 117.643 143.199 117.251L142.544 116.442C142.416 116.276 142.272 116.124 142.115 115.988C141.72 115.677 141.216 115.584 140.806 115.305" fill="black"/>
<path opacity="0.1" d="M349.797 0.0445389C349.797 0.0445389 316.607 -2.01075 320.51 21.8598C320.51 21.8598 319.721 26.0796 323.458 27.9933C323.458 27.9933 323.517 26.2253 326.865 26.8281C328.056 27.0308 329.267 27.0905 330.472 27.0061C332.1 26.8907 333.647 26.2346 334.879 25.1369V25.1369C334.879 25.1369 344.211 21.1801 347.838 5.53072C347.838 5.53072 350.522 2.11602 350.416 1.23807L344.814 3.6939C344.814 3.6939 346.73 7.8409 345.208 11.288C345.208 11.288 345.027 3.8436 343.951 4.00543C343.734 4.04184 341.041 5.44171 341.041 5.44171C341.041 5.44171 344.333 12.6636 341.849 17.9151C341.849 17.9151 342.791 9.01419 340.012 5.96362L336.07 8.3264C336.07 8.3264 339.918 15.787 337.308 21.876C337.308 21.876 337.978 12.5381 335.238 8.90091L331.666 11.7613C331.666 11.7613 335.281 19.1167 333.078 24.1659C333.078 24.1659 332.79 13.2947 330.894 12.4734C330.894 12.4734 327.767 15.3055 327.29 16.4626C327.29 16.4626 329.766 21.8031 328.229 24.619C328.229 24.619 327.286 17.377 326.514 17.3365C326.514 17.3365 323.399 22.1349 323.076 25.4282C323.076 25.4282 323.21 20.5368 325.761 16.8834C325.761 16.8834 322.749 17.4134 320.99 19.4161C320.99 19.4161 321.475 16.0257 326.529 15.7303C326.529 15.7303 329.104 12.089 329.79 11.8665C329.79 11.8665 324.767 11.4377 321.72 12.8213C321.72 12.8213 324.401 9.62107 330.712 11.0776L334.241 8.12006C334.241 8.12006 327.625 7.19356 324.818 8.21716C324.818 8.21716 328.047 5.38506 335.191 7.44845L339.03 5.09376C339.03 5.09376 333.389 3.84764 330.03 4.28459C330.03 4.28459 333.578 2.32236 340.158 4.45048L342.918 3.18412C342.918 3.18412 338.786 2.35068 337.576 2.21716C336.365 2.08365 336.302 1.7438 336.302 1.7438C338.92 1.29586 341.607 1.60261 344.065 2.62984C344.065 2.62984 349.899 0.420803 349.797 0.0445389Z" fill="#F9A826"/>
<path opacity="0.1" d="M308.86 6.11732C308.86 6.11732 293.879 5.18677 295.634 15.973C295.634 15.973 295.283 17.8827 296.962 18.7485C296.962 18.7485 296.99 17.9393 298.504 18.2185C299.041 18.3113 299.588 18.3385 300.132 18.2994C300.868 18.2481 301.567 17.9511 302.123 17.4538V17.4538C302.123 17.4538 306.341 15.6696 307.981 8.59743C307.981 8.59743 309.191 7.05191 309.144 6.65542L306.613 7.76398C306.613 7.76398 307.48 9.64126 306.798 11.1989C306.798 11.1989 306.715 7.83276 306.231 7.91368C306.132 7.91368 304.914 8.56101 304.914 8.56101C304.914 8.56101 306.404 11.826 305.28 14.2009C305.28 14.2009 305.706 10.1794 304.449 8.79972L302.667 9.86783C302.667 9.86783 304.409 13.238 303.226 15.9892C303.226 15.9892 303.53 11.7694 302.292 10.1268L300.68 11.4336C300.68 11.4336 302.312 14.7593 301.318 17.0371C301.318 17.0371 301.188 12.1254 300.329 11.7572C300.329 11.7572 298.918 13.0357 298.701 13.5617C298.701 13.5617 299.82 15.9892 299.126 17.2434C299.126 17.2434 298.701 13.9703 298.338 13.9582C298.338 13.9582 296.935 16.1268 296.785 17.5995C296.855 16.225 297.274 14.8932 297.999 13.7357C297.187 13.8935 296.437 14.2915 295.843 14.8806C295.843 14.8806 296.063 13.3513 298.346 13.2137C298.346 13.2137 299.529 11.5711 299.82 11.47C299.82 11.47 297.55 11.2758 296.174 11.9029C296.174 11.9029 297.384 10.4545 300.238 11.0937L301.815 9.75859C301.815 9.75859 298.827 9.354 297.557 9.80309C297.557 9.80309 299.016 8.5246 302.245 9.45515L303.979 8.39109C303.979 8.39109 301.433 7.82467 299.911 8.03101C299.911 8.03101 301.516 7.14092 304.488 8.10383L305.73 7.53337C305.73 7.53337 303.861 7.15306 303.313 7.09641C302.765 7.03977 302.738 6.88198 302.738 6.88198C303.921 6.67994 305.136 6.82003 306.246 7.28657C306.246 7.28657 308.907 6.28724 308.86 6.11732Z" fill="#F9A826"/>
<defs>
<linearGradient id="paint0_linear" x1="324.375" y1="181.81" x2="324.375" y2="19.0457" gradientUnits="userSpaceOnUse">
<stop stop-color="#808080" stop-opacity="0.25"/>
<stop offset="0.54" stop-color="#808080" stop-opacity="0.12"/>
<stop offset="1" stop-color="#808080" stop-opacity="0.1"/>
</linearGradient>
<linearGradient id="paint1_linear" x1="15716.3" y1="101360" x2="35188" y2="101360" gradientUnits="userSpaceOnUse">
<stop stop-color="#808080" stop-opacity="0.25"/>
<stop offset="0.54" stop-color="#808080" stop-opacity="0.12"/>
<stop offset="1" stop-color="#808080" stop-opacity="0.1"/>
</linearGradient>
</defs>
</svg>
